<svg xmlns="http://www.w3.org/2000/svg" width="900" height="600" viewBox="0 0 900 600">
<rect width="900" height="600" fill="white"/><text x="450" y="42" text-anchor="middle" font-family="Arial" font-size="26">Water Treatment Process</text><rect x="60" y="250" width="135" height="90" rx="12" fill="none" stroke="black"/><text x="127" y="300" text-anchor="middle" font-family="Arial" font-size="17">Collect water</text><line x1="195" y1="295" x2="220" y2="295" stroke="black" stroke-width="3"/><polygon points="220,295 210,289 210,301"/><rect x="225" y="250" width="135" height="90" rx="12" fill="none" stroke="black"/><text x="292" y="300" text-anchor="middle" font-family="Arial" font-size="17">Filter</text><line x1="360" y1="295" x2="385" y2="295" stroke="black" stroke-width="3"/><polygon points="385,295 375,289 375,301"/><rect x="390" y="250" width="135" height="90" rx="12" fill="none" stroke="black"/><text x="457" y="300" text-anchor="middle" font-family="Arial" font-size="17">Disinfect</text><line x1="525" y1="295" x2="550" y2="295" stroke="black" stroke-width="3"/><polygon points="550,295 540,289 540,301"/><rect x="555" y="250" width="135" height="90" rx="12" fill="none" stroke="black"/><text x="622" y="300" text-anchor="middle" font-family="Arial" font-size="17">Store</text><line x1="690" y1="295" x2="715" y2="295" stroke="black" stroke-width="3"/><polygon points="715,295 705,289 705,301"/><rect x="720" y="250" width="135" height="90" rx="12" fill="none" stroke="black"/><text x="787" y="300" text-anchor="middle" font-family="Arial" font-size="17">Distribute</text></svg>